<svg xmlns="http://www.w3.org/2000/svg" xmlns:xlink="http://www.w3.org/1999/xlink" version="1.1" x="0px" y="0px" fill="#a99fc7" viewBox="0 0 64 80" enable-background="new 0 0 64 64" xml:space="preserve"><g><path fill="#a99fc7" d="M32.055,9.327c-0.412-0.594-1.093-0.936-1.871-0.936c-0.209,0-0.424,0.025-0.64,0.075   c-0.377,0.087-0.72,0.215-1.029,0.346c-0.048-0.083-0.101-0.166-0.159-0.251c-0.63-0.92-1.445-1.386-2.42-1.386   c-0.065,0-0.132,0.002-0.201,0.007c-0.72,0.05-1.723,0.364-2.417,1.579c-0.091,0.16-0.171,0.322-0.236,0.484   c-0.009,0.001-0.017,0.002-0.027,0.002c-0.064,0.005-0.139,0.008-0.234,0.008c-0.086,0-0.171-0.002-0.258-0.003   c-1.223-0.015-2.626-0.042-3.336,1.151c-0.383,0.645-0.398,1.453-0.041,2.217c0.237,0.511,3.053,4.668,3.053,4.668h7.79   c0.034-0.085,1.285-3.45,1.538-4.289c0.056-0.187,0.175-0.421,0.3-0.669c0.132-0.259,0.279-0.552,0.403-0.878   C32.551,10.702,32.473,9.928,32.055,9.327z"/><path fill="#a99fc7" d="M25.731,23.838v2.766c0,0.118-0.029,0.245-0.029,0.363c-1.069-0.216-1.57-0.814-1.491-1.746   C24.27,24.466,24.888,23.868,25.731,23.838z"/><path fill="#a99fc7" d="M28.341,30.529c0.275,0.333,0.373,0.746,0.324,1.236c-0.02,0.275-0.118,0.53-0.265,0.775   c-0.314,0.481-0.903,0.834-1.55,0.883v-3.698C27.537,29.91,28.037,30.166,28.341,30.529z"/><path fill="#a99fc7" d="M38.484,32.333c-0.059-0.559-0.118-1.118-0.196-1.687c-0.029-0.226-0.049-0.471-0.088-0.706   c-0.206-1.501-0.481-2.796-0.863-3.953c-0.245-0.706-0.51-1.354-0.824-1.982c-0.01-0.02-0.02-0.029-0.029-0.049   c-1.197-2.335-3.316-3.836-5.523-5.062c-0.284-0.157-0.559-0.304-0.834-0.451l-0.343-0.177h-0.226l-3.463,0.029h-3.512   l-0.334,0.177c-0.334,0.167-0.657,0.353-0.991,0.54c-2.158,1.236-4.199,2.757-5.356,5.081c-0.128,0.255-0.255,0.52-0.353,0.785   c-0.343,0.814-0.618,1.668-0.844,2.619c-0.137,0.53-0.235,1.079-0.324,1.658c-0.049,0.285-0.088,0.569-0.128,0.873   c-0.049,0.422-0.098,0.844-0.137,1.275c-0.373,3.208-0.569,6.396-0.608,9.525v0.098c0.01,0.049,0.01,0.098,0.02,0.147   c0.54,0.177,1.079,0.363,1.619,0.549c0.049-0.363,0.147-0.726,0.353-1.079c0.432-0.814,1.452-1.795,3.806-1.795   c0.147,0,0.294,0,0.451,0.01l0.157,0.01l0.157,0.029c0.01,0,1.432,0.294,3.718,0.294c2.099,0,5.356-0.255,9.035-1.452l0.147-0.039   c1.177-0.284,2.345-0.598,3.6-0.942c0.746-0.216,1.491-0.422,2.246-0.608C38.73,34.815,38.622,33.57,38.484,32.333z M30.725,32.52   c-0.402,1.324-1.501,2.315-2.992,2.668c-0.294,0.059-0.569,0.088-0.903,0.167v1.138c-0.01,0.363-0.177,0.618-0.54,0.618   c-0.392,0.02-0.579-0.255-0.559-0.638v-1.099c-0.451-0.108-0.893-0.177-1.305-0.314c-1.334-0.471-2.296-1.344-2.668-2.747   c-0.02-0.039-0.02-0.059-0.029-0.078c-0.255-1.01,0.284-1.717,1.207-1.678c0.471,0.02,0.775,0.255,0.942,0.697   c0.137,0.383,0.255,0.755,0.432,1.109c0.029,0.088,0.069,0.137,0.108,0.206c0.265,0.451,0.677,0.736,1.314,0.922v-0.863   c0-0.667,0-1.334-0.02-2.001c0-0.314,0-0.628-0.01-0.952c0-0.098-0.177-0.235-0.304-0.285c-0.52-0.226-1.069-0.363-1.57-0.628   c-1.275-0.628-1.854-1.687-1.815-3.09c0.02-1.373,0.598-2.433,1.854-3.031c0.559-0.265,1.167-0.383,1.864-0.598v-1.089   c-0.02-0.373,0.177-0.598,0.54-0.598c0.373,0,0.549,0.235,0.549,0.608v1.158c1.315,0.137,2.433,0.569,3.139,1.697   c0.206,0.343,0.383,0.716,0.461,1.099c0.128,0.628-0.206,1.158-0.765,1.315c-0.638,0.157-1.158-0.128-1.393-0.765   c-0.088-0.235-0.167-0.451-0.284-0.677c-0.245-0.432-0.647-0.775-1.118-0.981v3.669c0.412,0.137,0.834,0.255,1.265,0.402   c1.471,0.49,2.374,1.403,2.658,2.639c0.069,0.324,0.098,0.687,0.088,1.079C30.852,31.931,30.803,32.235,30.725,32.52z"/><g><path fill="#a99fc7" d="M25.731,23.838v2.766c0,0.118-0.029,0.245-0.029,0.363c-1.069-0.216-1.57-0.814-1.491-1.746    C24.27,24.466,24.888,23.868,25.731,23.838z"/><path fill="#a99fc7" d="M28.665,31.765c-0.02,0.275-0.118,0.53-0.265,0.775c-0.314,0.481-0.903,0.834-1.55,0.883v-3.698    c0.687,0.186,1.187,0.441,1.491,0.804C28.616,30.862,28.714,31.274,28.665,31.765z"/><path fill="#a99fc7" d="M25.731,23.838v2.766c0,0.118-0.029,0.245-0.029,0.363c-1.069-0.216-1.57-0.814-1.491-1.746    C24.27,24.466,24.888,23.868,25.731,23.838z"/><path fill="#a99fc7" d="M28.665,31.765c-0.02,0.275-0.118,0.53-0.265,0.775c-0.314,0.481-0.903,0.834-1.55,0.883v-3.698    c0.687,0.186,1.187,0.441,1.491,0.804C28.616,30.862,28.714,31.274,28.665,31.765z"/></g><path fill="#a99fc7" d="M4.682,40.825c0,0,2.28,0.06,7.44,2.145c1.313,0.444,2.627,0.886,3.936,1.338   c2.698,0.93,5.192,1.92,8.033,2.278c2.633,0.33,5.331,0.454,7.968,0.086c1.269-0.179,3.329-0.43,4.355-1.288   c0,0,1.04-0.87-1.619-0.448c0,0-11.787,2.224-17.08-1.008c0,0-1.96-2.982,2.189-2.794c0,0,5.996,1.293,13.634-1.2   c5.453-1.277,11.401-3.716,17.053-2.403c3.388,0.785,6.294,2.986,9.131,4.877l2.462,1.721c0.583,0.407,0.725,1.21,0.318,1.793   l-4.615,6.602c-0.407,0.583-1.21,0.725-1.793,0.318c-0.418-0.293-0.837-0.585-1.255-0.877c-2.611-1.825-6.701-0.62-9.089,0.991   c0,0-7.998,6.964-18.548,2.212c0,0-9.517-3.663-14.318-7.045c0,0-4.723-3.215-11.108-5.17C1.777,42.951-0.536,41.018,4.682,40.825z   "/></g></svg>