<svg xmlns="http://www.w3.org/2000/svg" xmlns:xlink="http://www.w3.org/1999/xlink" version="1.1" x="0px" y="0px" fill="#a99fc7" viewBox="0 0 20 25" enable-background="new 0 0 20 20" xml:space="preserve"><g><path fill="#a99fc7" d="M12.1,10.1L13,6.2C13.1,5.6,12.7,5,12,5H8C7.3,5,6.9,5.6,7,6.2l0.9,3.9c-3.2,0.4-6,1.7-6,3.9   c0,0.8,0.4,1.5,1.1,2.1l-1,2.5c-0.1,0.4-0.1,0.8,0.2,1.1c0.2,0.2,0.6,0.4,1.1,0.3l6-2c0.3,0,0.5,0,0.8,0c4,0,8.1-1.4,8.1-4   C18.1,11.8,15.3,10.5,12.1,10.1z M10,16c-3.8,0-6.1-1.3-6.1-2c0-0.6,1.6-1.6,4.4-1.9l0.5,2.1c0.1,0.5,0.5,0.8,1,0.8h0.4   c0.5,0,0.9-0.3,1-0.8l0.5-2.1c2.8,0.3,4.4,1.3,4.4,1.9C16.1,14.7,13.8,16,10,16z"/><ellipse fill="#a99fc7" cx="10" cy="2" rx="2" ry="2"/></g></svg>