<svg xmlns:dc="http://purl.org/dc/elements/1.1/" xmlns:cc="http://creativecommons.org/ns#" xmlns:rdf="http://www.w3.org/1999/02/22-rdf-syntax-ns#" xmlns:svg="http://www.w3.org/2000/svg" xmlns="http://www.w3.org/2000/svg" xmlns:sodipodi="http://sodipodi.sourceforge.net/DTD/sodipodi-0.dtd" xmlns:inkscape="http://www.inkscape.org/namespaces/inkscape" version="1.1" x="0px" y="0px" viewBox="0 0 100 125"><g transform="translate(0,-952.36218)"><path style="font-size:medium;font-style:normal;font-variant:normal;font-weight:normal;font-stretch:normal;text-indent:0;text-align:start;text-decoration:none;line-height:normal;letter-spacing:normal;word-spacing:normal;text-transform:none;direction:ltr;block-progression:tb;writing-mode:lr-tb;text-anchor:start;baseline-shift:baseline;opacity:1;color:#000000;fill:#000000;fill-opacity:1;stroke:none;stroke-width:6.14940023000000040;marker:none;visibility:visible;display:inline;overflow:visible;enable-background:accumulate;font-family:Sans;-inkscape-font-specification:Sans" d="M 50 6.09375 C 46.890074 6.09375 44.095053 7.64605 41.8125 10.03125 C 39.529947 12.41645 37.629597 15.67614 36.03125 19.625 C 35.579572 20.74091 35.148314 21.933793 34.75 23.15625 C 31.176002 22.362048 27.817728 21.950222 24.8125 22 C 19.20977 22.0928 14.480795 23.7631 12.25 27.71875 C 10.763592 30.35444 10.709536 33.54381 11.625 36.75 C 12.540464 39.95619 14.393738 43.30194 17 46.71875 C 17.82483 47.800107 18.747846 48.910192 19.71875 50 C 18.749364 51.088315 17.823704 52.170122 17 53.25 C 14.393738 56.6668 12.540464 60.01255 11.625 63.21875 C 10.709536 66.42485 10.76359 69.6143 12.25 72.25 C 14.48083 76.2057 19.209938 77.87545 24.8125 77.96875 C 27.81509 78.018428 31.174007 77.66029 34.75 76.875 C 35.145706 78.087412 35.583 79.267562 36.03125 80.375 C 37.629597 84.3239 39.529947 87.58355 41.8125 89.96875 C 44.095053 92.35395 46.890074 93.90625 50 93.90625 C 53.109926 93.90625 55.904947 92.35395 58.1875 89.96875 C 60.470053 87.58355 62.370403 84.3239 63.96875 80.375 C 64.423855 79.250624 64.849085 78.045012 65.25 76.8125 C 66.620008 77.115548 67.956784 77.378067 69.25 77.5625 C 73.449045 78.1613 77.216951 78.14415 80.40625 77.34375 C 83.595549 76.54325 86.264167 74.8847 87.75 72.25 C 89.236403 69.6143 89.290463 66.4562 88.375 63.25 C 87.459537 60.0438 85.606263 56.6668 83 53.25 C 82.17517 52.168648 81.252154 51.08849 80.28125 50 C 81.252154 48.910192 82.17517 47.800107 83 46.71875 C 85.606263 43.30194 87.459536 39.95619 88.375 36.75 C 89.290464 33.54381 89.236403 30.35446 87.75 27.71875 C 86.264167 25.08409 83.595549 23.42549 80.40625 22.625 C 78.8116 22.22475 77.054352 22.03194 75.1875 22 C 73.320648 21.9681 71.349522 22.10684 69.25 22.40625 C 67.956784 22.590675 66.620008 22.884456 65.25 23.1875 C 64.849085 21.954987 64.423855 20.749379 63.96875 19.625 C 62.370403 15.67614 60.470053 12.41645 58.1875 10.03125 C 55.904947 7.64605 53.109926 6.09375 50 6.09375 z M 50 9.90625 C 51.584494 9.90625 53.2461 10.69707 55.03125 12.5625 C 56.8164 14.42793 58.584452 17.3171 60.0625 20.96875 C 60.476646 21.991934 60.848039 23.082426 61.21875 24.21875 C 57.622395 25.261319 53.827869 26.64585 49.96875 28.40625 C 46.114383 26.644681 42.367467 25.267102 38.78125 24.21875 C 39.151961 23.082426 39.523354 21.991934 39.9375 20.96875 C 41.415548 17.3171 43.1836 14.42793 44.96875 12.5625 C 46.7539 10.69707 48.415506 9.90625 50 9.90625 z M 24.875 26 C 27.414519 25.957937 30.394679 26.328293 33.625 27.03125 C 32.648241 30.816737 31.923801 34.975176 31.46875 39.40625 C 28.1295 41.900562 25.12566 44.482175 22.5 47.09375 C 21.671737 46.155795 20.886854 45.198111 20.1875 44.28125 C 17.794328 41.1438 16.188306 38.17632 15.46875 35.65625 C 14.749194 33.13618 14.88121 31.17262 15.71875 29.6875 C 16.973877 27.46191 20.02533 26.08036 24.875 26 z M 75.125 26 C 76.742106 26.0281 78.203105 26.19017 79.4375 26.5 C 81.906291 27.11965 83.443135 28.20136 84.28125 29.6875 C 85.118796 31.17264 85.250806 33.10493 84.53125 35.625 C 83.811694 38.14507 82.205672 41.1438 79.8125 44.28125 C 79.10966 45.202666 78.333017 46.152197 77.5 47.09375 C 74.876554 44.490314 71.866512 41.923667 68.53125 39.4375 C 68.074993 34.980712 67.327457 30.803949 66.34375 27 C 67.537055 26.738069 68.699842 26.502426 69.8125 26.34375 C 71.732768 26.0699 73.507894 25.97191 75.125 26 z M 62.3125 28.03125 C 62.962169 30.56527 63.518569 33.298513 63.9375 36.1875 C 62.481323 35.225173 60.987345 34.25981 59.4375 33.34375 A 2.0043897 2.0043897 0 0 0 57.375 36.78125 C 59.896395 38.27156 62.279706 39.860582 64.53125 41.46875 C 64.768761 44.223197 64.90625 47.069459 64.90625 50 C 64.90625 52.930535 64.768761 55.776812 64.53125 58.53125 C 62.279706 60.139423 59.896394 61.697188 57.375 63.1875 C 54.896314 64.652569 52.414672 65.98322 49.96875 67.15625 C 47.542148 65.988308 45.084944 64.672719 42.625 63.21875 C 40.103606 61.728412 37.720294 60.17377 35.46875 58.5625 C 35.229491 55.798414 35.09375 52.941646 35.09375 50 C 35.09375 47.069459 35.231239 44.223197 35.46875 41.46875 C 37.720294 39.86058 40.103606 38.271567 42.625 36.78125 C 49.430694 32.758651 56.211187 29.823576 62.3125 28.03125 z M 37.6875 28.0625 C 40.120093 28.771688 42.640039 29.677281 45.25 30.75 C 43.695056 31.563719 42.123048 32.390115 40.5625 33.3125 C 39.012655 34.228566 37.518677 35.192682 36.0625 36.15625 C 36.47922 33.289681 37.04343 30.579337 37.6875 28.0625 z M 50 42 C 45.605412 42 42 45.6054 42 50 C 42 54.3946 45.605412 58 50 58 C 54.394588 58 58 54.3946 58 50 C 58 45.6054 54.394588 42 50 42 z M 31.03125 44.84375 C 30.949715 46.536097 30.90625 48.253722 30.90625 50 C 30.90625 51.75779 30.979898 53.484387 31.0625 55.1875 C 28.947534 53.468294 26.996018 51.738163 25.25 50 C 26.990841 48.270469 28.923575 46.55391 31.03125 44.84375 z M 68.96875 44.84375 C 71.070102 46.54878 72.981964 48.275617 74.71875 50 C 72.983486 51.722449 71.06773 53.45314 68.96875 55.15625 C 69.050285 53.463909 69.09375 51.746267 69.09375 50 C 69.09375 48.253722 69.050285 46.536097 68.96875 44.84375 z M 50 46 C 52.232828 46 54 47.7672 54 50 C 54 52.2328 52.232828 54 50 54 C 47.767172 54 46 52.2328 46 50 C 46 47.7672 47.767172 46 50 46 z M 22.5 52.90625 C 25.123447 55.514661 28.133488 58.102428 31.46875 60.59375 C 31.923801 65.024818 32.648241 69.183261 33.625 72.96875 C 30.380865 73.680827 27.427247 74.011001 24.875 73.96875 C 20.025164 73.88775 16.973842 72.50685 15.71875 70.28125 C 14.881212 68.79615 14.749194 66.86375 15.46875 64.34375 C 16.188306 61.82365 17.794328 58.825 20.1875 55.6875 C 20.886854 54.770647 21.671737 53.843063 22.5 52.90625 z M 77.5 52.90625 C 78.328262 53.843064 79.113146 54.770647 79.8125 55.6875 C 82.205671 58.8249 83.811695 61.82365 84.53125 64.34375 C 85.250805 66.86375 85.118795 68.79615 84.28125 70.28125 C 83.443135 71.76745 81.906291 72.84905 79.4375 73.46875 C 76.968709 74.08835 73.653035 74.1727 69.8125 73.625 C 68.699842 73.466324 67.537055 73.26081 66.34375 73 C 67.325195 69.204797 68.074738 65.039046 68.53125 60.59375 C 71.866512 58.102428 74.876553 55.514661 77.5 52.90625 z M 36.0625 63.84375 C 37.518677 64.807309 39.012656 65.740196 40.5625 66.65625 C 42.115672 67.574284 43.671098 68.439607 45.21875 69.25 C 42.622473 70.31445 40.073285 71.199053 37.65625 71.90625 C 37.016261 69.399613 36.477222 66.696561 36.0625 63.84375 z M 63.9375 63.84375 C 63.519169 66.72139 62.959866 69.443718 62.3125 71.96875 C 59.880389 71.257958 57.361255 70.35539 54.75 69.28125 C 56.305646 68.465358 57.874392 67.580162 59.4375 66.65625 C 60.987344 65.740196 62.481323 64.807309 63.9375 63.84375 z M 50.0625 71.59375 C 53.892688 73.336451 57.648285 74.746185 61.21875 75.78125 C 60.848039 76.917573 60.476646 78.008065 60.0625 79.03125 C 58.584452 82.68295 56.8164 85.5721 55.03125 87.4375 C 53.2461 89.303 51.584494 90.09375 50 90.09375 C 48.415506 90.09375 46.7539 89.303 44.96875 87.4375 C 43.1836 85.5721 41.415548 82.68295 39.9375 79.03125 C 39.531141 78.027304 39.177084 76.956715 38.8125 75.84375 C 42.417596 74.796838 46.195745 73.366711 50.0625 71.59375 z " transform="translate(0,952.36218)"/></g><text x="0" y="115" fill="#000000" font-size="5px" font-weight="bold" font-family="'Helvetica Neue', Helvetica, Arial-Unicode, Arial, Sans-serif">Created by bezier master</text><text x="0" y="120" fill="#000000" font-size="5px" font-weight="bold" font-family="'Helvetica Neue', Helvetica, Arial-Unicode, Arial, Sans-serif">from the Noun Project</text></svg>