<svg xmlns="http://www.w3.org/2000/svg" xmlns:xlink="http://www.w3.org/1999/xlink" viewBox="0 0 60 75" version="1.1" x="0px" y="0px"><title>049-Select all</title><desc>Created with Sketch.</desc><g stroke="none" stroke-width="1" fill="none" fill-rule="evenodd"><g fill="#000000"><path d="M59,29 L31,29 L31,1 C31,0.448 30.553,0 30,0 C29.447,0 29,0.448 29,1 L29,29 L1,29 C0.447,29 0,29.448 0,30 C0,30.552 0.447,31 1,31 L29,31 L29,59 C29,59.552 29.447,60 30,60 C30.553,60 31,59.552 31,59 L31,31 L59,31 C59.553,31 60,30.552 60,30 C60,29.448 59.553,29 59,29"/><path d="M45,33 L34,33 C33.447,33 33,33.448 33,34 L33,45 C33,45.552 33.447,46 34,46 L45,46 C45.553,46 46,45.552 46,45 L46,34 C46,33.448 45.553,33 45,33"/><path d="M26,33 L15,33 C14.447,33 14,33.448 14,34 L14,45 C14,45.552 14.447,46 15,46 L26,46 C26.553,46 27,45.552 27,45 L27,34 C27,33.448 26.553,33 26,33"/><path d="M15,27 L26,27 C26.553,27 27,26.552 27,26 L27,15 C27,14.448 26.553,14 26,14 L15,14 C14.447,14 14,14.448 14,15 L14,26 C14,26.552 14.447,27 15,27"/><path d="M34,27 L45,27 C45.553,27 46,26.552 46,26 L46,15 C46,14.448 45.553,14 45,14 L34,14 C33.447,14 33,14.448 33,15 L33,26 C33,26.552 33.447,27 34,27"/></g></g><text x="0" y="75" fill="#000000" font-size="5px" font-weight="bold" font-family="'Helvetica Neue', Helvetica, Arial-Unicode, Arial, Sans-serif">Created by Creaticca Creative Agency</text><text x="0" y="80" fill="#000000" font-size="5px" font-weight="bold" font-family="'Helvetica Neue', Helvetica, Arial-Unicode, Arial, Sans-serif">from the Noun Project</text></svg>