<svg xmlns="http://www.w3.org/2000/svg" xmlns:xlink="http://www.w3.org/1999/xlink" version="1.1" x="0px" y="0px" fill="#a99fc7" viewBox="0 0 64 80" style="enable-background:new 0 0 64 64;" xml:space="preserve"><g><circle cx="47.7" cy="43.8" r="4.7"/><path d="M30.4,0.4c-6.8,0-12.4,5.5-12.4,12.4c0,3.8,1.7,7.2,4.4,9.5h7v-1.5c-0.6-0.1-1.1-0.1-1.7-0.3c-0.7-0.1-1.4-0.4-2-0.8   c-0.2-0.1-0.2-0.2-0.1-0.3c0.2-0.5,0.3-0.9,0.5-1.4c0.1,0.1,0.3,0.1,0.4,0.2c1.1,0.6,2.2,0.9,3.5,0.9c0.5,0,0.9-0.1,1.4-0.3   c1.9-0.8,2.1-3,0.5-4.3c-0.6-0.5-1.4-0.8-2.1-1.1c-0.9-0.4-1.8-0.8-2.6-1.5c-1.9-1.5-1.7-4.5,0.2-5.9c0.6-0.5,1.3-0.8,2.1-1   c0.1,0,0.2,0,0.3-0.1V3.1h1.6v1.6c0.6,0.1,1.2,0.2,1.8,0.3c0.5,0.1,0.9,0.4,1.4,0.6c0.1,0,0.1,0.2,0.1,0.2c-0.2,0.5-0.4,1-0.6,1.5   c-0.6-0.4-1.3-0.6-2-0.7c-0.8-0.1-1.6-0.2-2.5,0.1c-0.8,0.3-1.4,0.8-1.5,1.7c-0.1,0.9,0.1,1.6,0.9,2.1c0.6,0.4,1.3,0.7,2,1   c0.9,0.4,1.7,0.8,2.5,1.3c1.4,1,2,2.4,1.8,4.1c-0.2,1.6-1.2,2.7-2.7,3.3c-0.4,0.2-0.9,0.3-1.3,0.4v1.6h7.2c2.7-2.3,4.4-5.7,4.4-9.5   C42.8,5.9,37.2,0.4,30.4,0.4z"/><g><g><path d="M51.7,18.6L51.7,18.6c0-0.9-0.7-1.5-1.5-1.5h-5.9c-0.3,1-0.8,2-1.3,3h7.2C51.1,20,51.7,19.4,51.7,18.6z"/><path d="M44.7,35.1c4.1,0,8.1,0,12.2,0c1.7,0,2.4-0.7,2.4-2.4c0-1.6,0-3.2,0-4.9c0-2.5-1.1-3.7-3.6-3.7c-5.4,0-10.8,0-16.2,0     h-7.3c0,0,0,0,0,0H21.4h-13c-0.3,0-0.5,0-0.7,0v-2.7c0-0.8,0.6-1.4,1.5-1.5c0,0,0,0,0,0h8.6c-0.5-0.9-1-1.9-1.3-3H9     c-2.4,0.1-4.2,2.1-4.2,4.5l0,6.2c0,0,0,0.1,0,0.1v31.9c0,2.7,1.1,3.8,3.9,3.8h24.9c7.4,0,14.8,0,22.2,0c2.2,0,3.4-1.3,3.5-3.3     c0-1.8,0-3.6,0-5.3c0-1.6-0.7-2.3-2.2-2.3c-4.2,0-8.3-0.1-12.5,0c-2.8,0-4.5-1.5-4.5-4.4c0-2.8,0-5.6,0-8.5     C40,36.7,41.6,35.1,44.7,35.1z M29.2,46.4c-1.7,2.5-3.5,4.6-5.4,6.5c-0.4,0.4-0.9,0.7-1.4,0.7c-0.5,0-1-0.2-1.4-0.7     c-1.9-1.9-3.6-4.1-5.4-6.5c-0.2-0.3-0.3-0.7-0.3-1c0-0.2,0.1-0.4,0.2-0.7c0.2-0.4,0.6-0.8,1.5-0.8h2.7c0-0.4-0.1-1-0.2-1.7     c-0.2-1.5-0.4-3.4-0.5-4.4c-0.1-1.1,0.3-2.1,1-2.8c0.7-0.7,1.6-1,2.5-1c2,0,3.6,1.8,3.5,3.8c-0.1,1-0.3,2.7-0.5,4.1     c-0.1,0.7-0.2,1.4-0.2,1.9h0.5c0.7,0,1.4,0,2.1,0c0.7,0,1.2,0.3,1.5,0.8C29.6,45.3,29.5,45.8,29.2,46.4z"/></g></g></g></svg>