<svg xmlns="http://www.w3.org/2000/svg" xmlns:xlink="http://www.w3.org/1999/xlink" xml:space="preserve" style="shape-rendering:geometricPrecision;text-rendering:geometricPrecision;image-rendering:optimizeQuality;" viewBox="0 0 100 125" x="0px" y="0px" fill-rule="evenodd" clip-rule="evenodd"><defs><style type="text/css">
   
    .fil0 {fill:black}
   
  </style></defs><g><path class="fil0" d="M50 4.99965c24.8494,0 45.0004,20.1521 45.0004,45.0004 0,24.8482 -20.1509,45.0004 -45.0004,45.0004 -24.8482,0 -45.0004,-20.1521 -45.0004,-45.0004 0,-24.8482 20.1521,-45.0004 45.0004,-45.0004zm33.5424 42.748l0 4.50476 -9.68748 0 0 -4.50476 9.68748 0zm-57.3973 0l0 4.50476 -9.68748 0 0 -4.50476 9.68748 0zm21.6037 -31.7943l4.50358 0 0 9.68866 -4.50358 0 0 -9.68866zm0 57.3985l4.50358 0 0 9.68748 -4.50358 0 0 -9.68748zm23.7049 -45.5448l-16.7115 28.7057 -28.7046 16.7115 16.7033 -28.7116 28.7128 -16.7056zm-4.97248 4.97248l-13.0513 22.4199 -0.0153545 0.00826778 -9.36503 -9.36503 0.00472445 -0.0165356 22.4269 -13.0466zm-16.4812 -20.4628c20.8088,0 37.6845,16.8745 37.6845,37.6834 0,20.8088 -16.8757,37.6834 -37.6845,37.6834 -20.8088,0 -37.6834,-16.8745 -37.6834,-37.6834 0,-20.8088 16.8745,-37.6834 37.6834,-37.6834z"/></g><text x="0" y="115" fill="#000000" font-size="5px" font-weight="bold" font-family="'Helvetica Neue', Helvetica, Arial-Unicode, Arial, Sans-serif">Created by Richard</text><text x="0" y="120" fill="#000000" font-size="5px" font-weight="bold" font-family="'Helvetica Neue', Helvetica, Arial-Unicode, Arial, Sans-serif">from the Noun Project</text></svg>