<svg height="494pt" viewBox="-62 0 494 494.84205" width="494pt" xmlns="http://www.w3.org/2000/svg"><path d="m.421875 314.40625c.035156 2.738281 1.472656 5.265625 3.808594 6.691406l52.480469 31.761719v63.921875c.019531 2.859375 1.558593 5.496094 4.039062 6.921875l120.925781 70.0625c2.484375 1.433594 5.542969 1.4375 8.03125.003906l121.164063-70.058593c2.4375-1.449219 3.902344-4.097657 3.839844-6.929688v-64.179688l52.269531-31.5c2.363281-1.410156 3.847656-3.925781 3.9375-6.675781.074219-2.734375-1.257813-5.3125-3.53125-6.835937l-45.910157-30.5 45.941407-30.5c2.28125-1.511719 3.628906-4.085938 3.574219-6.820313-.054688-2.738281-1.503907-5.257812-3.839844-6.679687l-98.265625-59.660156c.597656-4.007813.898437-8.058594.898437-12.113282 0-23.390625-9.75-45.71875-26.898437-61.625-18.382813-17.117187-42.984375-25.941406-68.058594-24.398437-22.394531 1.289062-43.503906 10.886719-59.199219 26.914062-15.78125 16.101563-24.515625 36.988281-24.597656 58.804688-.019531 6.125.640625 12.230469 1.960938 18.210937l-88.722657 53.855469c-2.34375 1.425781-3.796875 3.949219-3.847656 6.691406-.050781 2.742188 1.308594 5.316407 3.597656 6.828125l46.253907 30.488282-46.253907 30.484374c-2.292969 1.511719-3.652343 4.09375-3.597656 6.835938zm72.289063 48.191406 41.289062 25.128906c2.414062 1.464844 5.417969 1.558594 7.921875.25l55.789063-29.300781v114.285157l-105-60.789063zm82-106.175781h51v22.753906c.066406 2.175781-.757813 4.28125-2.28125 5.839844-1.519532 1.554687-3.609376 2.421875-5.785157 2.40625h-34.460937c-2.21875.03125-4.355469-.820313-5.945313-2.367187-1.589843-1.546876-2.5-3.660157-2.527343-5.878907zm8.472656 47h34.460937c6.417969.011719 12.574219-2.542969 17.09375-7.097656 4.523438-4.554688 7.03125-10.730469 6.972657-17.148438v-41.085937l68.90625 38.972656-104.980469 59.1875-104.691407-59.1875 57.765626-32.863281v34.976562c.066406 13.453125 11.023437 24.304688 24.472656 24.246094zm30.527344 169.5625v-114.308594l55.777343 29.300781c1.148438.601563 2.425781.917969 3.722657.917969 1.417968 0 2.804687-.40625 4-1.167969l41.5-25.390624v49.824218zm110.019531-132.242187-50.8125 30.960937-50.472657-26.511719 104.25-58.730468 41.371094 27.472656zm44.355469-100.519532-41.375 27.476563-69.878907-39.613281c12.6875-9.984376 22.359375-23.289063 27.933594-38.441407zm-221.023438-126.816406c12.914062-13.1875 30.285156-21.082031 48.710938-22.140625 1.507812-.089844 3.015624-.132813 4.515624-.132813 19.152344-.070312 37.609376 7.148438 51.625 20.199219 13.929688 12.894531 21.859376 31.007813 21.875 49.988281 0 27.277344-17.035156 52.371094-43.15625 63.933594-2.929687 1.261719-4.851562 4.121094-4.921874 7.3125v7.855469h-51v-8.160156c.015624-3.195313-1.878907-6.09375-4.816407-7.355469-26.15625-11.171875-42.976562-36.230469-42.878906-63.835938.066406-17.628906 7.195313-34.550781 20.046875-47.664062zm-28.972656 81.441406c6.5625 14.867188 17.195312 27.574219 30.671875 36.652344l-63.640625 36.203125-41.742188-27.507813zm-32.957032 91.605469 103.867188 58.726563-50.496094 26.523437-50.835937-30.976563-44.265625-26.765624zm0 0"/><path d="m180.710938 55.96875c4.417968 0 8-3.582031 8-8v-39.96875c0-4.417969-3.582032-8-8-8-4.417969 0-8 3.582031-8 8v39.96875c0 4.417969 3.582031 8 8 8zm0 0"/><path d="m25.011719 165.421875h41.601562c4.417969 0 8-3.582031 8-8s-3.582031-8-8-8h-41.601562c-4.417969 0-8 3.582031-8 8s3.582031 8 8 8zm0 0"/><path d="m286.222656 157.421875c0 4.417969 3.582032 8 8 8h41.601563c4.417969 0 8-3.582031 8-8s-3.582031-8-8-8h-41.601563c-4.417968 0-8 3.582031-8 8zm0 0"/><path d="m94.710938 85.742188c3.203124 3.042968 8.265624 2.914062 11.3125-.289063 3.042968-3.203125 2.910156-8.269531-.292969-11.3125l-29.617188-28.136719c-3.203125-3.042968-8.269531-2.914062-11.3125.292969-3.042969 3.203125-2.914062 8.265625.289063 11.308594zm0 0"/><path d="m260.613281 87.941406c2.050781.003906 4.023438-.785156 5.507813-2.199218l29.617187-28.136719c3.203125-3.042969 3.332031-8.105469.289063-11.308594-3.042969-3.207031-8.109375-3.335937-11.3125-.292969l-29.613282 28.136719c-2.371093 2.257813-3.132812 5.730469-1.917968 8.769531 1.214844 3.039063 4.15625 5.03125 7.429687 5.03125zm0 0"/></svg>