<svg xmlns="http://www.w3.org/2000/svg" viewBox="0 0 20 30" fill="#a99fc7" x="0px" y="0px"><path fill-rule="evenodd" clip-rule="evenodd" d="M13 6V5H15C16.1045 5 17 4.10461 17 3V2C17 0.895386 16.1045 0 15 0H13C11.8955 0 11 0.895386 11 2V6H5C2.23877 6 0 8.23853 0 11V16C0 17.1046 0.895508 18 2 18H8V22C8 23.1046 8.89551 24 10 24H11C12.1045 24 13 23.1046 13 22V18H18C19.1045 18 20 17.1046 20 16V11C20 8.23853 17.7612 6 15 6H13ZM15 2H13V3H15V2ZM11 8V12C11 12.5522 11.4478 13 12 13C12.5522 13 13 12.5522 13 12V8H15C16.6567 8 18 9.34314 18 11V16H10V11C10 9.87439 9.62842 8.83569 9.00049 8H11ZM2 16V11C2 9.34314 3.34326 8 5 8C6.65674 8 8 9.34314 8 11V16H2ZM10 18V22H11V18H10Z" fill="#a99fc7"/></svg>