<svg xmlns="http://www.w3.org/2000/svg" xmlns:xlink="http://www.w3.org/1999/xlink" version="1.1" x="0px" y="0px" viewBox="0 0 100 125" style="enable-background:new 0 0 100 100;" xml:space="preserve"><path d="M56.3,89.4c-2,0-3.9-1-5.1-2.7l-2.3-3.5c-0.3-0.4-0.7-0.7-1.2-0.7l-0.5,0c-0.5,0-0.9,0.2-1.2,0.5l-2.6,3  c-1.2,1.4-2.9,2.1-4.6,2.1c-0.7,0-1.4-0.1-2.1-0.4l-0.6-0.2c-2.2-0.8-3.8-2.9-4-5.2l-0.4-4.7c0-0.4-0.3-0.8-0.6-1.1l-0.3-0.2  c-0.4-0.3-1-0.4-1.5-0.2l-3.3,1.2c-0.7,0.2-1.4,0.4-2.1,0.4c-1.9,0-3.6-0.9-4.8-2.3l-0.6-0.7c-1.5-1.9-1.7-4.4-0.6-6.5l2.2-4.4  c0.2-0.4,0.2-0.8,0.1-1.2L20,61.6c-0.2-0.4-0.5-0.7-0.9-0.9l-4.6-1.9c-2.1-0.9-3.6-2.9-3.8-5.2c-0.2-2.4,1.1-4.6,3.2-5.8l4.1-2.2  c0.4-0.2,0.7-0.6,0.8-1l0.2-0.7c0.1-0.4,0-0.9-0.3-1.2l-2.8-3.9c-1.4-1.9-1.5-4.5-0.3-6.6l0.4-0.7c1.3-2.2,3.9-3.4,6.4-3l3.6,0.7  c0.5,0.1,1-0.1,1.4-0.4l0.1-0.1c0.4-0.4,0.5-0.9,0.4-1.3l-0.6-3.8c-0.4-2.5,0.8-5,2.9-6.3l0.6-0.3c2-1.2,4.7-1.1,6.6,0.3l4,2.8  c0.4,0.2,0.8,0.3,1.2,0.2l0.4-0.1c0.5-0.1,0.9-0.5,1.1-1l1.3-3.3c0.9-2.4,3.4-4,6-3.9l1.1,0.1c2.4,0.1,4.5,1.7,5.4,3.9l1.7,4.4  c0.2,0.4,0.5,0.7,0.9,0.9l0.6,0.2c0.4,0.2,0.9,0.1,1.3-0.1l3.8-2.2c2.1-1.2,4.8-1.1,6.7,0.4l0.4,0.3c1.9,1.4,2.8,3.9,2.3,6.2l-1,4.5  c-0.1,0.4,0,0.9,0.3,1.3l0.4,0.5c0.3,0.4,0.7,0.6,1.2,0.6l4.3,0.2c2.4,0.1,4.6,1.6,5.5,3.9l0.1,0.3c0.9,2.2,0.3,4.7-1.3,6.4  l-3.4,3.5c-0.3,0.3-0.5,0.7-0.4,1.2l0,0.6c0,0.5,0.3,0.9,0.7,1.2l3.3,2.1c2.1,1.4,3.2,3.9,2.7,6.4l-0.2,0.9  c-0.5,2.4-2.4,4.3-4.8,4.7l-4.4,0.9c-0.5,0.1-0.8,0.4-1.1,0.8L77.6,66c-0.3,0.5-0.3,1.1,0,1.5l1.6,2.6c1.4,2.3,1.1,5.4-0.8,7.3  l-0.9,0.9c-1.1,1.2-2.8,1.9-4.4,1.9h0c-0.7,0-1.3-0.1-2-0.3l-4.6-1.6c-0.4-0.1-0.9-0.1-1.3,0.1l-0.5,0.3C64.4,79,64.1,79.5,64,80  l-0.5,3.8c-0.3,2.6-2.2,4.6-4.7,5.2l-1.2,0.3C57.2,89.3,56.7,89.4,56.3,89.4z M47.2,77.9c0.1,0,0.3,0,0.4,0l0.4,0  c1.9,0.1,3.6,1.1,4.6,2.7l2.3,3.5c0.4,0.5,1,0.8,1.6,0.7l1.2-0.3c0.6-0.1,1.1-0.7,1.2-1.3l0.5-3.8c0.2-1.9,1.4-3.7,3.1-4.6l0.5-0.3  c1.5-0.8,3.3-1,4.9-0.4l4.6,1.6c0.2,0.1,0.3,0.1,0.5,0.1l0,0c0.4,0,0.8-0.2,1.1-0.5l0.9-0.9c0.5-0.5,0.6-1.3,0.2-1.9l-1.6-2.6  c-1.1-1.9-1.2-4.2-0.1-6.1l0.1-0.2c0.9-1.6,2.4-2.7,4.2-3.1l4.4-0.9c0.6-0.1,1.1-0.6,1.2-1.2l0.2-0.9c0.1-0.6-0.1-1.3-0.7-1.6  l-3.3-2.1c-1.6-1-2.7-2.8-2.8-4.7l0-0.6c-0.1-1.7,0.5-3.4,1.7-4.7l3.4-3.5c0.4-0.4,0.5-1.1,0.3-1.6L82,38.5c-0.2-0.6-0.8-1-1.4-1  l-4.3-0.2c-1.9-0.1-3.6-1-4.7-2.4l-0.4-0.5c-1.1-1.4-1.5-3.3-1.1-5l1-4.5c0.1-0.6-0.1-1.2-0.6-1.6l-0.4-0.3  c-0.5-0.4-1.2-0.4-1.7-0.1l-3.8,2.2c-1.6,0.9-3.5,1.1-5.2,0.5l-0.6-0.2c-1.6-0.6-2.9-1.9-3.6-3.6l-1.7-4.4c-0.2-0.6-0.8-1-1.4-1  l-1.1-0.1h0c-0.7,0-1.3,0.4-1.5,1l-1.3,3.3c-0.7,1.9-2.4,3.3-4.4,3.8l-0.4,0.1c-1.7,0.4-3.4,0-4.8-1l-4-2.8  c-0.5-0.3-1.2-0.4-1.7-0.1L32.6,21c-0.6,0.3-0.9,1-0.7,1.6l0.6,3.8c0.3,1.9-0.3,3.9-1.7,5.3l-0.1,0.1c-1.4,1.4-3.5,2.1-5.5,1.7  l-3.6-0.7c-0.6-0.1-1.3,0.2-1.6,0.8l-0.4,0.7c-0.3,0.5-0.3,1.2,0.1,1.7l2.8,3.9c1,1.4,1.4,3.2,1,4.9l-0.2,0.7  c-0.4,1.7-1.5,3.2-3.1,4.1l-4.1,2.2c-0.5,0.3-0.9,0.9-0.8,1.5c0,0.6,0.4,1.1,1,1.3l4.6,1.9c1.6,0.6,2.8,1.9,3.4,3.5l0.3,0.8  c0.6,1.6,0.5,3.4-0.3,4.9L22,70.1c-0.3,0.5-0.2,1.2,0.2,1.7l0.6,0.7c0.4,0.5,1.1,0.7,1.8,0.5l3.3-1.2c1.9-0.7,4.1-0.4,5.7,0.8  l0.3,0.2c1.4,1,2.3,2.6,2.4,4.4l0.4,4.7c0,0.6,0.5,1.1,1,1.3l0.6,0.2c0.6,0.2,1.3,0,1.7-0.5l2.6-3C43.8,78.7,45.5,77.9,47.2,77.9z   M49.8,65.1c-7.8,0-14.1-6.3-14.1-14.1S42,36.8,49.8,36.8S63.9,43.2,63.9,51S57.6,65.1,49.8,65.1z M49.8,41.4  c-5.3,0-9.6,4.3-9.6,9.6s4.3,9.6,9.6,9.6s9.6-4.3,9.6-9.6S55.1,41.4,49.8,41.4z"/><text x="0" y="115" fill="#000000" font-size="5px" font-weight="bold" font-family="'Helvetica Neue', Helvetica, Arial-Unicode, Arial, Sans-serif">Created by Michelle Fosse</text><text x="0" y="120" fill="#000000" font-size="5px" font-weight="bold" font-family="'Helvetica Neue', Helvetica, Arial-Unicode, Arial, Sans-serif">from the Noun Project</text></svg>