<svg xmlns="http://www.w3.org/2000/svg" xmlns:xlink="http://www.w3.org/1999/xlink" version="1.1" x="0px" y="0px" viewBox="0 0 50 62.5" enable-background="new 0 0 50 50" xml:space="preserve"><path d="M37.166,48.778H12.833c-2.742,0-4.974-2.139-4.974-4.768V10.974c0-2.629,2.231-4.768,4.974-4.768h24.333  c2.742,0,4.975,2.139,4.975,4.768v33.037C42.141,46.64,39.908,48.778,37.166,48.778z M12.833,8.154c-1.668,0-3.025,1.265-3.025,2.82  v33.037c0,1.555,1.357,2.82,3.025,2.82h24.333c1.67,0,3.027-1.266,3.027-2.82V10.974c0-1.555-1.357-2.82-3.027-2.82H12.833z"/><path d="M35.541,16.888c0,0.552-0.447,1-1,1H12.875c-0.553,0-1-0.448-1-1l0,0c0-0.552,0.447-1,1-1h21.666  C35.094,15.888,35.541,16.335,35.541,16.888L35.541,16.888z"/><path d="M25.875,21.054c0,0.552-0.41,1-0.917,1H12.791c-0.506,0-0.916-0.448-0.916-1l0,0c0-0.552,0.41-1,0.916-1h12.167  C25.465,20.054,25.875,20.502,25.875,21.054L25.875,21.054z"/><path d="M27.291,25.555c0,0.553-0.447,1-1,1H12.875c-0.553,0-1-0.447-1-1l0,0c0-0.553,0.447-1,1-1h13.416  C26.844,24.554,27.291,25.002,27.291,25.555L27.291,25.555z"/><path d="M29.291,29.888c0,0.553-0.447,1-1,1H12.875c-0.553,0-1-0.447-1-1l0,0c0-0.553,0.447-1,1-1h15.416  C28.844,28.888,29.291,29.335,29.291,29.888L29.291,29.888z"/><path d="M34.291,34.138c0,0.553-0.447,1-1,1H12.875c-0.553,0-1-0.447-1-1l0,0c0-0.553,0.447-1,1-1h20.416  C33.844,33.138,34.291,33.585,34.291,34.138L34.291,34.138z"/><path d="M23.541,38.096c0,0.552-0.466,1-1.042,1h-9.582c-0.576,0-1.042-0.448-1.042-1l0,0c0-0.552,0.466-1,1.042-1h9.582  C23.075,37.096,23.541,37.544,23.541,38.096L23.541,38.096z"/><path d="M13.367,7.588c0.202-0.069,0.409-0.095,0.615-0.074c0.381,0.001,0.762,0.003,1.143,0.005V5.263  c0-1.125,0.916-2.042,2.041-2.042c1.126,0,2.042,0.916,2.042,2.042v2.174c0.313-0.019,0.627-0.035,0.94-0.063  c0.137-0.017,0.269-0.028,0.393-0.028c0.258-0.001,0.479,0.049,0.667,0.132V5.263c0-2.229-1.813-4.042-4.042-4.042  c-2.229,0-4.041,1.813-4.041,4.042v2.418c0.032-0.017,0.067-0.024,0.101-0.039C13.272,7.623,13.317,7.603,13.367,7.588z"/><path d="M34.875,7.75c0.281-0.221,0.629-0.361,0.958-0.361c0.443,0,0.792,0.17,1.042,0.44V5.263c0-2.229-1.814-4.042-4.043-4.042  s-4.041,1.813-4.041,4.042v2.319c0.391-0.31,0.927-0.436,1.468-0.207c-0.01-0.006-0.019-0.011-0.027-0.017  c0.231,0.061,0.407,0.168,0.56,0.292V5.263c0-1.125,0.916-2.042,2.041-2.042c1.127,0,2.043,0.916,2.043,2.042V7.75z"/><text x="0" y="65" fill="#000000" font-size="5px" font-weight="bold" font-family="'Helvetica Neue', Helvetica, Arial-Unicode, Arial, Sans-serif">Created by Adnen Kadri</text><text x="0" y="70" fill="#000000" font-size="5px" font-weight="bold" font-family="'Helvetica Neue', Helvetica, Arial-Unicode, Arial, Sans-serif">from the Noun Project</text></svg>